<svg id="图层_1" data-name="图层 1" xmlns="http://www.w3.org/2000/svg" viewBox="0 0 68 68"><defs><style>.cls-1{fill:#70d2db;}.cls-2{fill:none;stroke:#fff;stroke-linecap:round;stroke-linejoin:round;stroke-width:2px;}.cls-3{fill:#fff;}</style></defs><title>雅安首页改版</title><rect class="cls-1" width="68" height="68" rx="10"/><path class="cls-2" d="M14.09,26.31V19.87S13.83,17,15.93,17h3.56a2.78,2.78,0,0,1,2.77,1.52c.89,1.78,1.47,3.66,3.88,3.66H50.75s3.16-.52,3.16,1.72v2.24"/><path class="cls-3" d="M53,30,50.39,48.45a.59.59,0,0,1-.59.52H18.11a.59.59,0,0,1-.59-.52L15,30.51a.43.43,0,0,1,.11-.38.47.47,0,0,1,.37-.17H53m.14-2H15.49A2.49,2.49,0,0,0,13,30.79l2.51,17.94A2.6,2.6,0,0,0,18.11,51H49.8a2.6,2.6,0,0,0,2.57-2.24L55,30.1A1.88,1.88,0,0,0,53.12,28Z"/><line class="cls-2" x1="26.51" y1="35.81" x2="41.12" y2="35.81"/></svg>