<svg id="图层_1" data-name="图层 1" xmlns="http://www.w3.org/2000/svg" viewBox="0 0 68 68"><defs><style>.cls-1{fill:#febd55;}.cls-2,.cls-3{fill:none;stroke:#fff;stroke-linecap:round;stroke-width:2px;}.cls-2{stroke-miterlimit:10;}.cls-3{stroke-linejoin:round;}.cls-4{fill:#fff;}</style></defs><title>雅安首页改版</title><rect class="cls-1" width="68" height="68" rx="10"/><line class="cls-2" x1="48.51" y1="26.48" x2="19.39" y2="26.48"/><path class="cls-3" d="M20.51,26.48s1.88-.07,1.9-1.35a11.2,11.2,0,0,1,6.36-9.68s0,1.61.08,2.93a1.79,1.79,0,0,0,1.81,1.48,1.74,1.74,0,0,0,1.86-1.54V14.91s-.05-.73.18-.75a14.81,14.81,0,0,1,2.75,0c.22,0,.19.72.19.72v3.35a1.58,1.58,0,0,0,1.76,1.63,1.51,1.51,0,0,0,1.7-1.72c0-.22,0-2.8,0-2.8a12,12,0,0,1,6.51,9.18,2.08,2.08,0,0,0,2.33,2"/><path class="cls-4" d="M41.12,30.23c-.61,2.44-2.31,6.13-6.9,6.13s-6.54-3.65-7.35-6.13H41.12m2.35-2H24.36s1.18,10.13,9.86,10.13,9.25-10.13,9.25-10.13Z"/><line class="cls-2" x1="32.13" y1="34.23" x2="35.75" y2="34.23"/><path class="cls-4" d="M33.91,39.18c12.18,0,18.15,8.42,19,12.28a4.17,4.17,0,0,1,.07.44H52.8l-18.58,0H16.12A3,3,0,0,1,15,51.74a2.84,2.84,0,0,1,.29-.9c2-4.36,7.06-11.66,18.62-11.66m0-2C21,37.18,15.5,45.57,13.47,50c-1.63,3.56,1.38,3.91,2.65,3.91.31,0,.51,0,.51,0H34.22l18.58,0c2.24,0,2.41-1.46,2.06-2.91-1.1-5-8-13.82-21-13.82Z"/></svg>