<svg id="图层_1" data-name="图层 1" xmlns="http://www.w3.org/2000/svg" viewBox="0 0 68 68"><defs><style>.cls-1{fill:#fade97;}.cls-2{fill:#fff;}.cls-3{fill:none;stroke:#fff;stroke-miterlimit:10;stroke-width:1.9px;}</style></defs><title>雅安首页改版</title><rect class="cls-1" x="0.09" y="-0.1" width="68" height="68" rx="10"/><path class="cls-2" d="M53.19,15V52.84H15V15h38.2m1.9-1.9h-42V54.74h42V13.06Z"/><line class="cls-3" x1="17.94" y1="24.87" x2="27.06" y2="24.87"/><polyline class="cls-3" points="22.91 17.55 22.91 24.87 22.91 48.27"/><line class="cls-3" x1="17.21" y1="37.12" x2="22.91" y2="24.87"/><line class="cls-3" x1="28.29" y1="35.84" x2="22.91" y2="31.68"/><polyline class="cls-3" points="28.61 29.17 39.44 18.02 50.15 29.17"/><line class="cls-3" x1="32.98" y1="31" x2="45.91" y2="31"/><line class="cls-3" x1="32.33" y1="36.64" x2="34.55" y2="44.81"/><line class="cls-3" x1="38.96" y1="35.4" x2="40.1" y2="42.81"/><line class="cls-3" x1="47.05" y1="36.24" x2="44.51" y2="47.45"/><line class="cls-3" x1="29.05" y1="47.55" x2="48.88" y2="47.55"/></svg>