<svg id="图层_1" data-name="图层 1" xmlns="http://www.w3.org/2000/svg" viewBox="0 0 68 68"><defs><style>.cls-1{fill:#efc6be;}.cls-2{fill:none;stroke:#fff;stroke-linecap:round;stroke-linejoin:round;stroke-width:2px;}</style></defs><title>雅安首页改版</title><rect class="cls-1" x="-0.21" width="68" height="68" rx="10"/><polyline class="cls-2" points="19.1 33.22 19.1 18.72 19.1 14.93 48.48 14.93 48.48 18.72 48.48 33.22"/><line class="cls-2" x1="14.02" y1="33.64" x2="53.33" y2="33.64"/><polyline class="cls-2" points="30.94 19.34 33.87 22.13 36.65 19.34"/><line class="cls-2" x1="33.79" y1="22.13" x2="33.79" y2="28.77"/><line class="cls-2" x1="30.4" y1="22.35" x2="37.19" y2="22.35"/><line class="cls-2" x1="30.4" y1="25.77" x2="37.19" y2="25.77"/><path class="cls-2" d="M49,18.31h1.44A3.51,3.51,0,0,1,54,21.81V49.56a3.51,3.51,0,0,1-3.51,3.51H17.14a3.51,3.51,0,0,1-3.51-3.51V21.81a3.51,3.51,0,0,1,3.51-3.5h2"/></svg>