<svg id="图层_1" data-name="图层 1" xmlns="http://www.w3.org/2000/svg" viewBox="0 0 68 68"><defs><style>.cls-1{fill:#70d2db;}.cls-2{fill:#fff;}</style></defs><title>雅安首页改版</title><rect class="cls-1" y="-0.1" width="68" height="68" rx="10"/><path class="cls-2" d="M33.47,14.32l17.29,4.31V37.55c-1.14,10.33-14,15.06-16.57,15.88-17.13-6.58-17-15.55-17-15.63V18.2l16.23-3.88m0-1.42L15.85,17.11v20.6S15.21,47.8,34.15,54.9c0,0,16.69-4.74,18-17.28V17.54L33.48,12.9Z"/><path class="cls-2" d="M32.79,20.43V32.06H23.15V22.34l9.64-1.91m1.39-1.69L21.76,21.2V33.44H34.18V18.74Z"/><path class="cls-2" d="M44.63,34.25V44L35,45.87V34.25h9.65M46,32.86H33.6v14.7L46,45.1V32.86Z"/></svg>