<svg class="icon" style="width:1em;height:1em;vertical-align:middle;fill:currentColor;overflow:hidden" viewBox="0 0 1024 1024" version="1.1" xmlns="http://www.w3.org/2000/svg" p-id="1750">
    <path d="M387.5 820.1L255 820c-13.7 0-26.5-5.3-36.2-15-9.7-9.7-15-22.5-15-36.2l0.1-132.5c0-13.8-11.2-25-25-25s-25 11.2-25 25l-0.1 132.5c0 27 10.5 52.5 29.6 71.6 19.1 19.1 44.5 29.7 71.6 29.7l132.5 0.1c13.8 0 25-11.2 25-25 0-13.9-11.2-25.1-25-25.1zM845.1 611.5c-13.8 0-25 11.2-25 25L820 769c0 13.7-5.3 26.5-15 36.2-9.7 9.7-22.5 15-36.2 15l-132.5-0.1c-13.8 0-25 11.2-25 25s11.2 25 25 25l132.5 0.1c27 0 52.4-10.5 71.5-29.6S870 796.1 870 769l0.1-132.5c0-13.8-11.2-25-25-25zM178.9 412.5c13.8 0 25-11.2 25-25L204 255c0-13.7 5.3-26.5 15-36.2 9.7-9.7 22.5-15 36.2-15l132.5 0.1c13.8 0 25-11.2 25-25s-11.2-25-25-25l-132.5-0.1c-27 0-52.4 10.5-71.5 29.6S154 227.9 154 255l-0.1 132.5c0 13.8 11.2 25 25 25zM840.6 183.6c-19.1-19.1-44.5-29.7-71.6-29.7l-132.5-0.1c-13.8 0-25 11.2-25 25s11.2 25 25 25l132.5 0.2c13.7 0 26.5 5.3 36.2 15 9.7 9.7 15 22.5 15 36.2l-0.1 132.5c0 13.8 11.2 25 25 25s25-11.2 25-25l0.1-132.5c0-27-10.5-52.4-29.6-71.6zM674.5 703.2c0 13.8 11.2 25 25 25s25-11.2 25-25c0-56.8-22.1-110.1-62.2-150.3-20.5-20.5-44.4-36.3-70.5-46.9 22.9-22.2 37.2-53.4 37.2-87.8 0-32.7-12.7-63.4-35.8-86.5-23.1-23.1-53.8-35.9-86.5-35.9-67.5 0-122.3 54.9-122.4 122.3 0 32.7 12.7 63.4 35.8 86.5 1.5 1.5 3.1 3 4.7 4.5-23.2 10.4-44.5 25.1-63.1 43.6-40.2 40.1-62.3 93.5-62.3 150.3 0 13.8 11.2 25 25 25s25-11.2 25-25c0-43.4 16.9-84.2 47.6-114.9 30.7-30.7 71.5-47.6 114.9-47.6h0.1c43.4 0 84.2 16.9 114.9 47.6 30.7 30.9 47.6 71.7 47.6 115.1zM506.6 345.9c19.4 0 37.5 7.5 51.2 21.2 13.7 13.7 21.2 31.9 21.2 51.2 0 19.3-7.5 37.5-21.2 51.2-13.7 13.7-31.8 21.2-51.2 21.2-39.9 0-72.4-32.5-72.3-72.4 0-40 32.4-72.4 72.3-72.4z" p-id="1751"/>
</svg>
